<mxfile host="app.diagrams.net" modified="2023-06-27T22:07:47.776Z" agent="Mozilla/5.0 (Windows NT 10.0; Win64; x64) AppleWebKit/537.36 (KHTML, like Gecko) Chrome/114.0.0.0 Safari/537.36" etag="ljQNpUH70MnhhGx-6Qnm" version="21.5.1" type="github">
  <diagram name="Page-1" id="8YuhZbaD81Tiq4IgLbzD">
    <mxGraphModel dx="1050" dy="485" grid="1" gridSize="10" guides="1" tooltips="1" connect="1" arrows="1" fold="1" page="1" pageScale="1" pageWidth="1100" pageHeight="850" math="0" shadow="0">
      <root>
        <mxCell id="0" />
        <mxCell id="1" parent="0" />
        <mxCell id="5LV-of5tSu1D3ijXw4zV-1" style="edgeStyle=orthogonalEdgeStyle;rounded=0;orthogonalLoop=1;jettySize=auto;html=1;entryX=1.043;entryY=0.63;entryDx=0;entryDy=0;entryPerimeter=0;" edge="1" parent="1" source="5LV-of5tSu1D3ijXw4zV-3" target="5LV-of5tSu1D3ijXw4zV-10">
          <mxGeometry relative="1" as="geometry">
            <Array as="points">
              <mxPoint x="780" y="50" />
              <mxPoint x="780" y="268" />
            </Array>
          </mxGeometry>
        </mxCell>
        <mxCell id="5LV-of5tSu1D3ijXw4zV-2" value="Export" style="edgeLabel;html=1;align=center;verticalAlign=middle;resizable=0;points=[];" vertex="1" connectable="0" parent="5LV-of5tSu1D3ijXw4zV-1">
          <mxGeometry x="0.13" y="-3" relative="1" as="geometry">
            <mxPoint as="offset" />
          </mxGeometry>
        </mxCell>
        <mxCell id="5LV-of5tSu1D3ijXw4zV-3" value="Firms" style="rounded=1;whiteSpace=wrap;html=1;fillColor=#d5e8d4;strokeColor=#82b366;fontStyle=1" vertex="1" parent="1">
          <mxGeometry x="500" y="30" width="120" height="60" as="geometry" />
        </mxCell>
        <mxCell id="5LV-of5tSu1D3ijXw4zV-4" style="edgeStyle=orthogonalEdgeStyle;rounded=0;orthogonalLoop=1;jettySize=auto;html=1;entryX=1;entryY=0.5;entryDx=0;entryDy=0;" edge="1" parent="1" source="5LV-of5tSu1D3ijXw4zV-10" target="5LV-of5tSu1D3ijXw4zV-12">
          <mxGeometry relative="1" as="geometry">
            <mxPoint x="410" y="320" as="targetPoint" />
          </mxGeometry>
        </mxCell>
        <mxCell id="5LV-of5tSu1D3ijXw4zV-5" value="ECB Rate" style="edgeLabel;html=1;align=center;verticalAlign=middle;resizable=0;points=[];" vertex="1" connectable="0" parent="5LV-of5tSu1D3ijXw4zV-4">
          <mxGeometry x="0.2655" y="1" relative="1" as="geometry">
            <mxPoint x="12" y="-5" as="offset" />
          </mxGeometry>
        </mxCell>
        <mxCell id="5LV-of5tSu1D3ijXw4zV-6" style="edgeStyle=orthogonalEdgeStyle;rounded=0;orthogonalLoop=1;jettySize=auto;html=1;entryX=0.577;entryY=1.07;entryDx=0;entryDy=0;entryPerimeter=0;" edge="1" parent="1" source="5LV-of5tSu1D3ijXw4zV-10" target="5LV-of5tSu1D3ijXw4zV-3">
          <mxGeometry relative="1" as="geometry">
            <Array as="points" />
          </mxGeometry>
        </mxCell>
        <mxCell id="5LV-of5tSu1D3ijXw4zV-7" value="Oil/Non-Oil Import" style="edgeLabel;html=1;align=center;verticalAlign=middle;resizable=0;points=[];" vertex="1" connectable="0" parent="5LV-of5tSu1D3ijXw4zV-6">
          <mxGeometry x="-0.0632" y="-3" relative="1" as="geometry">
            <mxPoint as="offset" />
          </mxGeometry>
        </mxCell>
        <mxCell id="5LV-of5tSu1D3ijXw4zV-13" style="edgeStyle=orthogonalEdgeStyle;rounded=0;orthogonalLoop=1;jettySize=auto;html=1;entryX=0.5;entryY=0;entryDx=0;entryDy=0;" edge="1" parent="1" source="5LV-of5tSu1D3ijXw4zV-10" target="5LV-of5tSu1D3ijXw4zV-11">
          <mxGeometry relative="1" as="geometry" />
        </mxCell>
        <mxCell id="5LV-of5tSu1D3ijXw4zV-14" value="EU funds" style="edgeLabel;html=1;align=center;verticalAlign=middle;resizable=0;points=[];" vertex="1" connectable="0" parent="5LV-of5tSu1D3ijXw4zV-13">
          <mxGeometry x="0.2133" relative="1" as="geometry">
            <mxPoint as="offset" />
          </mxGeometry>
        </mxCell>
        <mxCell id="5LV-of5tSu1D3ijXw4zV-10" value="Foreign Economy" style="rounded=1;whiteSpace=wrap;html=1;fillColor=#e1d5e7;strokeColor=#9673a6;fontStyle=1" vertex="1" parent="1">
          <mxGeometry x="510" y="230" width="120" height="60" as="geometry" />
        </mxCell>
        <mxCell id="5LV-of5tSu1D3ijXw4zV-11" value="Government" style="rounded=1;whiteSpace=wrap;html=1;fillColor=#fff2cc;strokeColor=#d6b656;fontStyle=1" vertex="1" parent="1">
          <mxGeometry x="510" y="440" width="120" height="60" as="geometry" />
        </mxCell>
        <mxCell id="5LV-of5tSu1D3ijXw4zV-12" value="Financial Markets, Banks" style="rounded=1;whiteSpace=wrap;html=1;fillColor=#f8cecc;strokeColor=#b85450;fontStyle=1" vertex="1" parent="1">
          <mxGeometry x="290" y="230" width="120" height="60" as="geometry" />
        </mxCell>
      </root>
    </mxGraphModel>
  </diagram>
</mxfile>
